<svg id="Capa_1" data-name="Capa 1" xmlns="http://www.w3.org/2000/svg" xmlns:xlink="http://www.w3.org/1999/xlink" viewBox="0 0 150 40"><defs><style>.cls-1{fill:none;}.cls-2{fill:#fff;}.cls-3{fill:#dbad3a;}.cls-4{clip-path:url(#clip-path);}.cls-5{opacity:0.1;}.cls-6{clip-path:url(#clip-path-2);}.cls-7{clip-path:url(#clip-path-3);}</style><clipPath id="clip-path"><rect class="cls-1" x="-254.82" y="62.41" width="582.05" height="107.09"/></clipPath><clipPath id="clip-path-2"><rect class="cls-1" x="-21.41" y="-40.59" width="113.7" height="42.02"/></clipPath><clipPath id="clip-path-3"><rect class="cls-1" x="-21.41" y="1.43" width="113.7" height="42.02"/></clipPath></defs><title>Mesa de trabajo 10</title><path class="cls-2" d="M10.42,30.69h1.22a2.34,2.34,0,0,1,1.23.24,1,1,0,0,1,.52.88.9.9,0,0,1-.66.89h0a1,1,0,0,1,.83,1,1.14,1.14,0,0,1-.57,1,2.56,2.56,0,0,1-1.35.28H10.42Zm1.45,1.86c.42,0,.75-.18.75-.59a.52.52,0,0,0-.27-.48,1.59,1.59,0,0,0-.76-.12h-.4v1.19Zm-.2,1.84a1.57,1.57,0,0,0,.87-.16.54.54,0,0,0,.25-.49c0-.42-.32-.64-.9-.64h-.7v1.29Z"/><path class="cls-2" d="M15.2,33.91V32.09h.73v1.7a.79.79,0,0,0,.13.53.53.53,0,0,0,.4.16,1.07,1.07,0,0,0,.77-.39v-2H18v3h-.73v-.33h0a1.4,1.4,0,0,1-1,.39,1,1,0,0,1-.79-.31A1.26,1.26,0,0,1,15.2,33.91Z"/><path class="cls-2" d="M19.72,34.2a2.4,2.4,0,0,0,1.14.33c.34,0,.55-.1.55-.32s-.38-.28-.84-.38-.95-.32-.95-.86.54-.94,1.26-.94a2.73,2.73,0,0,1,1.09.23v.67a2.33,2.33,0,0,0-1.1-.31c-.31,0-.51.09-.51.29s.37.27.81.37,1,.31,1,.87-.56,1-1.3,1a2.88,2.88,0,0,1-1.13-.22Z"/><path class="cls-2" d="M26.16,34.9a2,2,0,0,1-.93.22,1.54,1.54,0,0,1-1.64-1.53A1.58,1.58,0,0,1,25.27,32a2,2,0,0,1,.84.19v.71a1.54,1.54,0,0,0-.83-.27.92.92,0,1,0,0,1.83,1.43,1.43,0,0,0,.87-.3Z"/><path class="cls-2" d="M28,34.93a.87.87,0,0,1,.05-1.4,1.49,1.49,0,0,1,.83-.21,2.54,2.54,0,0,1,.57.07v-.18a.5.5,0,0,0-.14-.4.73.73,0,0,0-.5-.14,1.7,1.7,0,0,0-.89.26v-.66a2.07,2.07,0,0,1,1-.24,1.53,1.53,0,0,1,.95.27,1,1,0,0,1,.31.79v1.14c0,.17.06.28.21.28a.47.47,0,0,0,.16,0V35a.92.92,0,0,1-.36.07.73.73,0,0,1-.61-.27h0a1.39,1.39,0,0,1-.88.28A1.2,1.2,0,0,1,28,34.93Zm1.45-.56v-.5A1.69,1.69,0,0,0,29,33.8c-.3,0-.6.1-.6.39s.21.36.47.36A1.05,1.05,0,0,0,29.41,34.37Z"/><path class="cls-2" d="M32,34.2a2.4,2.4,0,0,0,1.14.33c.33,0,.54-.1.54-.32s-.37-.28-.83-.38-1-.32-1-.86S32.39,32,33.1,32a2.74,2.74,0,0,1,1.1.23v.67a2.33,2.33,0,0,0-1.1-.31c-.31,0-.51.09-.51.29s.36.27.81.37,1,.31,1,.87-.56,1-1.3,1A2.88,2.88,0,0,1,32,34.9Z"/><path class="cls-2" d="M38.42,33.91V32.09h.73v1.7a.79.79,0,0,0,.13.53.51.51,0,0,0,.39.16,1.06,1.06,0,0,0,.77-.39v-2h.73v3h-.72v-.33h0a1.4,1.4,0,0,1-1,.39,1.05,1.05,0,0,1-.79-.31A1.26,1.26,0,0,1,38.42,33.91Z"/><path class="cls-2" d="M43,32.09h.72v.32h0a1.49,1.49,0,0,1,1-.39,1,1,0,0,1,.78.31,1.15,1.15,0,0,1,.26.87v1.85H45V33.34a.79.79,0,0,0-.12-.51.5.5,0,0,0-.39-.16,1.12,1.12,0,0,0-.78.38v2H43Z"/><path class="cls-2" d="M50.7,36.38H50V32.09h.72v.17h0A1.32,1.32,0,0,1,51.5,32a1.43,1.43,0,0,1,1.41,1.53,1.5,1.5,0,0,1-1.55,1.56,1.66,1.66,0,0,1-.65-.13h0Zm.61-1.86a.86.86,0,0,0,.87-.92.88.88,0,0,0-.85-1,1,1,0,0,0-.63.22v1.48A1.22,1.22,0,0,0,51.31,34.52Z"/><path class="cls-2" d="M55.11,33.77a.91.91,0,0,0,1,.75,1.8,1.8,0,0,0,1-.34v.67a2.19,2.19,0,0,1-1.08.27,1.53,1.53,0,0,1-1.65-1.54A1.49,1.49,0,0,1,55.88,32a1.35,1.35,0,0,1,1.39,1.45,2.33,2.33,0,0,1,0,.29Zm0-.5h1.47a.69.69,0,0,0-.71-.65A.76.76,0,0,0,55.11,33.27Z"/><path class="cls-2" d="M58.93,32.09h.72v.42h0a1,1,0,0,1,.86-.45l.2,0v.7a.93.93,0,0,0-.24,0,1,1,0,0,0-.83.44v1.86h-.73Z"/><path class="cls-2" d="M62.21,32.09h.72v.42h0a1,1,0,0,1,.86-.45.69.69,0,0,1,.2,0v.7a.93.93,0,0,0-.24,0,1,1,0,0,0-.83.44v1.86h-.73Z"/><path class="cls-2" d="M66.91,32a1.55,1.55,0,1,1-1.61,1.55A1.55,1.55,0,0,1,66.91,32Zm0,2.46a.91.91,0,0,0,0-1.82.91.91,0,0,0,0,1.82Z"/><path class="cls-2" d="M70.35,34.18h.7l-.52,1.76H70Z"/><path class="cls-2" d="M75.89,33.77a.91.91,0,0,0,1,.75,1.8,1.8,0,0,0,1-.34v.67a2.22,2.22,0,0,1-1.08.27,1.52,1.52,0,0,1-1.65-1.54A1.49,1.49,0,0,1,76.66,32a1.35,1.35,0,0,1,1.39,1.45,2.33,2.33,0,0,1,0,.29Zm0-.5h1.47a.69.69,0,0,0-.71-.65A.75.75,0,0,0,75.89,33.27Z"/><path class="cls-2" d="M79.71,32.09h.72v.32h0a1.45,1.45,0,0,1,1-.39,1.07,1.07,0,0,1,.79.31,1.19,1.19,0,0,1,.25.87v1.85h-.73V33.34a.79.79,0,0,0-.12-.51.5.5,0,0,0-.39-.16,1.12,1.12,0,0,0-.78.38v2h-.73Z"/><path class="cls-2" d="M86.64,34.9a2,2,0,0,1-.92.22,1.53,1.53,0,0,1-1.64-1.53A1.57,1.57,0,0,1,85.75,32a2,2,0,0,1,.85.19v.71a1.55,1.55,0,0,0-.84-.27.92.92,0,1,0,0,1.83,1.38,1.38,0,0,0,.86-.3Z"/><path class="cls-2" d="M88.31,33.91V32.09H89v1.7a.78.78,0,0,0,.14.53.51.51,0,0,0,.39.16,1.06,1.06,0,0,0,.77-.39v-2h.73v3h-.72v-.33h0a1.36,1.36,0,0,1-1,.39,1,1,0,0,1-.79-.31A1.26,1.26,0,0,1,88.31,33.91Z"/><path class="cls-2" d="M93.45,33.77a.91.91,0,0,0,1,.75,1.81,1.81,0,0,0,1-.34v.67a2.23,2.23,0,0,1-1.09.27,1.53,1.53,0,0,1-1.65-1.54A1.5,1.5,0,0,1,94.22,32a1.35,1.35,0,0,1,1.39,1.45,2.33,2.33,0,0,1,0,.29Zm0-.5h1.48a.69.69,0,0,0-.71-.65A.76.76,0,0,0,93.45,33.27Z"/><path class="cls-2" d="M97.28,32.09H98v.32h0A1.49,1.49,0,0,1,99,32a1,1,0,0,1,.78.31,1.15,1.15,0,0,1,.25.87v1.85H99.3V33.34a.73.73,0,0,0-.13-.51.5.5,0,0,0-.39-.16,1.08,1.08,0,0,0-.77.38v2h-.73Z"/><path class="cls-2" d="M102.06,34V32.71h-.52v-.62h.52V31.3l.73-.12v.91h.84v.62h-.84v1.17c0,.33.06.61.39.61a1.07,1.07,0,0,0,.45-.12V35a1.41,1.41,0,0,1-.6.13,1,1,0,0,1-.73-.28A1.2,1.2,0,0,1,102.06,34Z"/><path class="cls-2" d="M105.21,32.09h.72v.42h0a1,1,0,0,1,.86-.45l.2,0v.7a.93.93,0,0,0-.24,0,1,1,0,0,0-.83.44v1.86h-.73Z"/><path class="cls-2" d="M108.62,34.93a.87.87,0,0,1,0-1.4,1.49,1.49,0,0,1,.83-.21,2.62,2.62,0,0,1,.57.07v-.18a.54.54,0,0,0-.14-.4.73.73,0,0,0-.5-.14,1.74,1.74,0,0,0-.9.26v-.66a2.1,2.1,0,0,1,1-.24,1.56,1.56,0,0,1,1,.27,1,1,0,0,1,.31.79v1.14c0,.17.06.28.2.28a.47.47,0,0,0,.17,0V35a.94.94,0,0,1-.37.07.71.71,0,0,1-.6-.27h0a1.37,1.37,0,0,1-.88.28A1.17,1.17,0,0,1,108.62,34.93Zm1.45-.56v-.5a1.7,1.7,0,0,0-.46-.07c-.3,0-.6.1-.6.39s.22.36.48.36A1.05,1.05,0,0,0,110.07,34.37Z"/><path class="cls-2" d="M112.61,34.2a2.34,2.34,0,0,0,1.14.33c.33,0,.54-.1.54-.32s-.38-.28-.83-.38-1-.32-1-.86.55-.94,1.26-.94a2.74,2.74,0,0,1,1.1.23v.67a2.37,2.37,0,0,0-1.11-.31c-.3,0-.51.09-.51.29s.37.27.82.37,1,.31,1,.87-.56,1-1.29,1a2.85,2.85,0,0,1-1.13-.22Z"/><path class="cls-2" d="M119.21,34.93a.82.82,0,0,1-.34-.69.84.84,0,0,1,.38-.71,1.54,1.54,0,0,1,.84-.21,2.62,2.62,0,0,1,.57.07v-.18a.51.51,0,0,0-.15-.4.7.7,0,0,0-.5-.14,1.73,1.73,0,0,0-.89.26v-.66a2.1,2.1,0,0,1,1-.24,1.51,1.51,0,0,1,.95.27,1,1,0,0,1,.32.79v1.14c0,.17.06.28.2.28a.47.47,0,0,0,.17,0V35a.94.94,0,0,1-.37.07.7.7,0,0,1-.6-.27h0a1.37,1.37,0,0,1-.88.28A1.15,1.15,0,0,1,119.21,34.93Zm1.45-.56v-.5a1.77,1.77,0,0,0-.46-.07c-.3,0-.6.1-.6.39s.21.36.47.36A1.08,1.08,0,0,0,120.66,34.37Z"/><path class="cls-2" d="M127.21,33.32a.69.69,0,0,0-.13-.49.48.48,0,0,0-.38-.16A1.08,1.08,0,0,0,126,33v2h-.72V33.32c0-.26,0-.39-.13-.49a.47.47,0,0,0-.38-.16A1.09,1.09,0,0,0,124,33v2h-.73v-3H124v.32h0a1.41,1.41,0,0,1,1-.38,1,1,0,0,1,.89.46,1.54,1.54,0,0,1,1.08-.46,1,1,0,0,1,.77.3,1.21,1.21,0,0,1,.26.87v1.86h-.73Z"/><path class="cls-2" d="M131.17,32a1.55,1.55,0,1,1-1.61,1.55A1.55,1.55,0,0,1,131.17,32Zm0,2.46a.91.91,0,1,0-.88-.91A.88.88,0,0,0,131.17,34.49Z"/><path class="cls-2" d="M134.41,32.09h.72v.42h0a1.08,1.08,0,0,1,.87-.45.63.63,0,0,1,.19,0v.7a.83.83,0,0,0-.24,0,1,1,0,0,0-.82.44v1.86h-.73Z"/><path class="cls-2" d="M138.16,34.18a.48.48,0,0,1,.47.47.47.47,0,1,1-.94,0A.48.48,0,0,1,138.16,34.18Z"/><path class="cls-2" d="M144.17,38.14H5.83V27.76H144.17Zm-138-.32h137.7V28.08H6.15Z"/><path class="cls-2" d="M10.09,2.45a4.08,4.08,0,0,1,4.08,3.89,4.59,4.59,0,0,1-.29,1.32,5.58,5.58,0,0,1,3.55,5.12,5.28,5.28,0,0,1-1.68,3.92,5.56,5.56,0,0,1-4,1.63H6V2.45h4.06Zm0,5.08a1,1,0,0,0,1-.93,1,1,0,0,0-1-1H9.28V7.53Zm4.08,5.26a2.29,2.29,0,0,0-.73-1.7,2.24,2.24,0,0,0-1.72-.49H9.28v4.55h2.44A2.42,2.42,0,0,0,14.17,12.79Z"/><path class="cls-2" d="M31.4,2.4V12a6.12,6.12,0,0,1-1.93,4.55,6.72,6.72,0,0,1-9.32,0A6.12,6.12,0,0,1,18.22,12V2.4h3.3V12a3,3,0,0,0,1,2.25,3.17,3.17,0,0,0,2.31.94,3.21,3.21,0,0,0,2.32-.94,3,3,0,0,0,1-2.25V2.4Z"/><path class="cls-2" d="M37.44,15.19a1.65,1.65,0,0,0,1.66-1.61,1.25,1.25,0,0,0-.84-1.32c-1.17-.42-.89-.32-2-.71a6.52,6.52,0,0,1-3.07-2.21,3.55,3.55,0,0,1-.68-2.21,4.59,4.59,0,0,1,1.47-3.41,5,5,0,0,1,7,0,4.59,4.59,0,0,1,1.47,3.41h-3.3a1.65,1.65,0,0,0-3.3,0,1.44,1.44,0,0,0,.71,1.31,4.85,4.85,0,0,0,2,.83,6.38,6.38,0,0,1,3.18,2.1,3.52,3.52,0,0,1,.69,2.22A4.63,4.63,0,0,1,41,17a5,5,0,0,1-7,0,4.6,4.6,0,0,1-1.47-3.43H35.8a1.63,1.63,0,0,0,1.65,1.61Z"/><path class="cls-2" d="M51.36,2.36A8.24,8.24,0,0,1,54.57,3a8.8,8.8,0,0,1,2.65,1.73L54.88,7a4.86,4.86,0,0,0-3.5-1.42A4.79,4.79,0,0,0,47.88,7a4.62,4.62,0,0,0-1.46,3.42,4.59,4.59,0,0,0,1.46,3.42,5,5,0,0,0,7,0l2.34,2.28a8.8,8.8,0,0,1-2.65,1.73,8.24,8.24,0,0,1-3.21.63,8.07,8.07,0,0,1-5.84-2.36,7.68,7.68,0,0,1-2.43-5.7,7.68,7.68,0,0,1,2.43-5.7,8,8,0,0,1,5.84-2.38Z"/><path class="cls-2" d="M61.9,15.9c-.36.81-.74,1.61-1.11,2.42H57.26L64.69,2.1l7.44,16.22H68.6c-.37-.8-.73-1.61-1.1-2.41H61.9Zm4.26-2.82L64.72,9.77l-1.45,3.31Z"/><path class="cls-2" d="M77,2.43a8.41,8.41,0,0,1,6,2.35A8.3,8.3,0,0,1,83,16a8.48,8.48,0,0,1-6,2.33H73V2.44h4Zm0,12.73a4.86,4.86,0,0,0,3.53-1.29,4.66,4.66,0,0,0,1.33-3.48,4.67,4.67,0,0,0-1.34-3.48A4.88,4.88,0,0,0,77,5.61h-.75v9.55H77Z"/><path class="cls-2" d="M113.15,2.83a8.24,8.24,0,0,1,3.21.63A9,9,0,0,1,119,5.18l-2.34,2.28a5,5,0,0,0-7,0,4.76,4.76,0,0,0,0,6.84,5.07,5.07,0,0,0,6.39.51,4.79,4.79,0,0,0,1.79-2.32h-4.68V9.27h8.1a7,7,0,0,1,.17,1.61A7.65,7.65,0,0,1,119,16.57a8.39,8.39,0,0,1-11.69,0,7.64,7.64,0,0,1-2.43-5.69,7.71,7.71,0,0,1,2.43-5.71,8,8,0,0,1,5.84-2.37Z"/><path class="cls-2" d="M94.77,9.47a2.17,2.17,0,0,0-1,.25l-.28.11a1.79,1.79,0,0,1-.73.14l-.18,0a5.07,5.07,0,0,0-.65-.09c-.89-.06-1.67.23-1.75,1.4a.9.9,0,0,0,.17.63h0c.52.76,2.07,1,2.92,1.59a4.11,4.11,0,0,1,.35.27c.39.35.79.8,1.19,1.18a3.39,3.39,0,0,0,.83.61,1.25,1.25,0,0,0,.41.11.84.84,0,0,0,.43-.09C97.69,15,97.52,14,97,13.11l-.11-.19a.81.81,0,0,1-.1-.18c-.29-.66.11-1.35-.23-2.06a2,2,0,0,0-.74-.8,2.18,2.18,0,0,0-.7-.35l-.34-.06"/><path class="cls-2" d="M93.55,6.22a.87.87,0,0,0-.48.13,2.81,2.81,0,0,0-.83.85l0,0c-.48.69-.51,1.48-.08,1.78h0a.67.67,0,0,0,.32.1,1,1,0,0,0,.33,0,2,2,0,0,0,1-.79,4.31,4.31,0,0,0,.39-.63,1,1,0,0,0,.09-.94A.87.87,0,0,0,94,6.4a.92.92,0,0,0-.46-.18"/><path class="cls-2" d="M99.31,10.16a1.1,1.1,0,0,0-.83.39h0a4,4,0,0,0-.48.58,1.71,1.71,0,0,0-.35,1.48.59.59,0,0,0,.25.33.63.63,0,0,0,.33.12,1.18,1.18,0,0,0,.37-.05,2.14,2.14,0,0,0,1-.78,1.3,1.3,0,0,1,.1-.15c.44-.65.72-1.31.07-1.76a1,1,0,0,0-.46-.17"/><path class="cls-2" d="M96.49,5.82c-.51,0-1,.43-1.37,1l-.05.08c-.54.75-.59,1.63-.12,2a.77.77,0,0,0,.37.12h.12a2,2,0,0,0,1.36-.9c.54-.75.94-1.53.18-2.05a.94.94,0,0,0-.49-.19"/><path class="cls-2" d="M98.63,7.29A1,1,0,0,0,98,7.5a3.73,3.73,0,0,0-.78.84c-.51.71-.59,1.53-.2,1.9l.09.06a.58.58,0,0,0,.36.12,1.84,1.84,0,0,0,1.48-.89c.49-.68.85-1.38.39-1.88a1.2,1.2,0,0,0-.21-.17L99,7.42a.9.9,0,0,0-.4-.13"/><path class="cls-3" d="M95,19.26a9,9,0,0,1-5.68-2,8.59,8.59,0,0,1-3.17-5.89A8.77,8.77,0,0,1,94.15,1.9a9,9,0,0,1,6.51,2,8.61,8.61,0,0,1,3.18,5.89h0a8.5,8.5,0,0,1-2,6.36,8.9,8.9,0,0,1-6,3.1C95.51,19.24,95.23,19.26,95,19.26Zm0-15-.61,0a6.39,6.39,0,0,0-5.87,6.89,6.26,6.26,0,0,0,2.32,4.3,6.53,6.53,0,0,0,4.74,1.43,6.45,6.45,0,0,0,4.4-2.26A6.22,6.22,0,0,0,101.44,10h0a6.3,6.3,0,0,0-2.32-4.3A6.58,6.58,0,0,0,95,4.22Z"/><polygon class="cls-3" points="84.55 22.37 84.4 22.56 86.41 24.25 86.56 24.07 84.55 22.37"/><polygon class="cls-3" points="85.13 21.65 84.98 21.83 86.99 23.53 87.14 23.34 85.13 21.65"/><polygon class="cls-3" points="86.12 24.61 86.27 24.43 84.26 22.73 84.11 22.92 86.12 24.61"/><polygon class="cls-3" points="84.84 22.01 84.69 22.2 86.7 23.89 86.85 23.7 84.84 22.01"/><path class="cls-3" d="M89.51,18.25a1.35,1.35,0,0,0-1.86.23l-2.11,2.65,2,1.7,2.2-2.76A1.28,1.28,0,0,0,89.51,18.25Z"/><path class="cls-3" d="M84,23.1l-2.82,3.54a1.28,1.28,0,0,0,.23,1.82,1.34,1.34,0,0,0,1.86-.23L86,24.79Z"/><polygon class="cls-3" points="85.4 21.31 85.27 21.47 87.28 23.16 87.41 23 85.4 21.31"/><path class="cls-3" d="M123.62,15.6a1.31,1.31,0,1,1-1.34,1.31A1.32,1.32,0,0,1,123.62,15.6Z"/><path class="cls-2" d="M132.05,7.7a5.26,5.26,0,0,1,2.06.41,5.48,5.48,0,0,1,1.71,1.11l-1.5,1.46a3.14,3.14,0,0,0-2.25-.92,3.09,3.09,0,0,0-2.25.92,3,3,0,0,0,0,4.39,3.13,3.13,0,0,0,2.25.91,3.09,3.09,0,0,0,2.25-.92l1.5,1.46a5.46,5.46,0,0,1-1.7,1.12,5.25,5.25,0,0,1-2.06.4,5.15,5.15,0,0,1-3.75-1.52,5.06,5.06,0,0,1,0-7.31,5.16,5.16,0,0,1,3.75-1.53Z"/><path class="cls-2" d="M139.77,7.73v8.2H144V18h-6.31V7.73Z"/><g class="cls-4"><g class="cls-5"><rect class="cls-1" x="92.29" y="-40.59" width="113.7" height="42.02"/><rect class="cls-1" x="97.67" y="-40.59" width="105.56" height="42.02"/><rect class="cls-1" x="92.29" y="1.43" width="113.7" height="42.02"/><path class="cls-2" d="M124.19,9.78a2.32,2.32,0,0,0-1,.33l-.28.13a1.65,1.65,0,0,1-.73.19l-.19,0a5.16,5.16,0,0,0-.67-.05c-.91,0-1.69.35-1.69,1.55a1,1,0,0,0,.22.63h0c.58.74,2.19.9,3.1,1.43.12.07.24.16.37.25.43.33.86.76,1.3,1.12a3.53,3.53,0,0,0,.89.56,1.06,1.06,0,0,0,.42.09.88.88,0,0,0,.44-.12c1.24-.67,1-1.65.4-2.53l-.14-.19a1.74,1.74,0,0,1-.11-.18c-.34-.65,0-1.38-.38-2.08a2.07,2.07,0,0,0-.81-.76,2.56,2.56,0,0,0-.73-.31,2.33,2.33,0,0,0-.36,0"/><path class="cls-2" d="M122.72,6.56a.86.86,0,0,0-.48.16,2.84,2.84,0,0,0-.79.93l0,0c-.44.73-.43,1.54,0,1.81h0a.62.62,0,0,0,.33.08,1.06,1.06,0,0,0,.34-.06,2,2,0,0,0,1-.87,3.93,3.93,0,0,0,.35-.67,1.05,1.05,0,0,0,0-1,.88.88,0,0,0-.34-.32,1,1,0,0,0-.48-.15"/><path class="cls-2" d="M128.87,10.18a1.14,1.14,0,0,0-.82.46h0a4.41,4.41,0,0,0-.45.63,1.73,1.73,0,0,0-.25,1.52.68.68,0,0,0,.27.33.74.74,0,0,0,.36.09,1.27,1.27,0,0,0,.37-.07,2.09,2.09,0,0,0,1-.87l.09-.15c.41-.7.64-1.39-.05-1.79a1,1,0,0,0-.48-.15"/><path class="cls-2" d="M125.69,6c-.53,0-1,.5-1.33,1.09l0,.08c-.5.8-.49,1.7,0,2a.75.75,0,0,0,.38.1h.12a2,2,0,0,0,1.33-1c.5-.81.85-1.63,0-2.11a1.06,1.06,0,0,0-.51-.15"/><path class="cls-2" d="M128,7.3a1,1,0,0,0-.64.26,3.78,3.78,0,0,0-.73.91c-.47.76-.49,1.6-.07,1.94l.09.06a.7.7,0,0,0,.38.1,1.91,1.91,0,0,0,1.45-1c.44-.72.77-1.45.26-1.94a1.25,1.25,0,0,0-.22-.16l-.1,0A.94.94,0,0,0,128,7.3"/><path class="cls-2" d="M98.17,9.9c-.73.25-1.67,0-2.13.75s.31,1.41.5,2.17c.15.6-.05,2.1.8,2.08,1.64,0,.85-1.12,1.7-2.61s2.24-1.43,1.42-2.77C100,8.73,98.81,9.68,98.17,9.9Z"/><path class="cls-2" d="M95.27,11.54a.92.92,0,0,0-.36-1.27C94.45,10,92.83,9,92.38,10s1,1.89,1.59,1.94S95,12,95.27,11.54Z"/><path class="cls-2" d="M96.24,13.64a.94.94,0,0,0-.86-1c-.52,0-2.42-.06-2.44.71s1.73,1.1,2.26,1.15A1,1,0,0,0,96.24,13.64Z"/><path class="cls-2" d="M96.74,6.75c-.37.31.22.87.46,1.41s0,.88.11,1.05a1.29,1.29,0,0,0,1.59,0A.91.91,0,0,0,99,7.89C98.66,7.5,97.4,6.2,96.74,6.75Z"/><path class="cls-2" d="M96.44,9.52c.26-.45-.1-1.11-.51-1.44s-1.9-1-2.39-.15,1.14,1.69,1.59,1.94A1,1,0,0,0,96.44,9.52Z"/><path class="cls-2" d="M111.75,38.78c-1.24-.69.08-1.58-.89-3.09s-2.66-1.77-1.73-3.55c.67-1.3,3.33-.82,5,1.36C116.21,36.3,113.06,39.5,111.75,38.78Z"/><path class="cls-2" d="M112.32,30.72a.77.77,0,0,0,1-.44.73.73,0,0,0-.17-1,.77.77,0,0,0-.95.44A.73.73,0,0,0,112.32,30.72Z"/><path class="cls-2" d="M113.56,28.87a.69.69,0,0,0,0-.5.78.78,0,0,0-.4.31C113.06,28.89,113.44,29.09,113.56,28.87Z"/><path class="cls-2" d="M114,31.55a.93.93,0,0,0,1.24-.2.87.87,0,0,0,.15-1.21.91.91,0,0,0-1.23.2A.86.86,0,0,0,114,31.55Z"/><path class="cls-2" d="M116,29.83a.83.83,0,0,0,.2-.55.89.89,0,0,0-.56.21C115.45,29.7,115.81,30,116,29.83Z"/><path class="cls-2" d="M115.3,32.59a1,1,0,0,0,1.38.12,1,1,0,0,0,.5-1.27,1,1,0,0,0-1.38-.11C115.28,31.65,115.05,32.22,115.3,32.59Z"/><path class="cls-2" d="M118,31.28a.94.94,0,0,0,.36-.55,1,1,0,0,0-.66.09C117.39,31,117.69,31.45,118,31.28Z"/><path class="cls-2" d="M115.74,34.21a.9.9,0,0,0,1.14.51c.54-.11.91-.52.82-.91a.89.89,0,0,0-1.13-.51C116,33.41,115.66,33.82,115.74,34.21Z"/><path class="cls-2" d="M118.43,33.9a.83.83,0,0,0,.48-.35.86.86,0,0,0-.59-.12A.24.24,0,0,0,118.43,33.9Z"/><path class="cls-2" d="M117.41,36a.77.77,0,0,0-.9-.54c-.46,0-.81.34-.78.68s.43.58.89.54S117.44,36.28,117.41,36Z"/><path class="cls-2" d="M118.44,35.86a.74.74,0,0,0-.48-.17c-.25,0-.21.43,0,.41A.75.75,0,0,0,118.44,35.86Z"/><path class="cls-2" d="M154.07,6.24A1.63,1.63,0,0,0,152.6,6a1.61,1.61,0,0,0-.67.43h0a1.87,1.87,0,0,0-2.21-.25,2,2,0,0,0-.31.27A1.77,1.77,0,0,0,149,7.82a1.89,1.89,0,0,0-1.36.56,1.56,1.56,0,0,0-.23.34,1.76,1.76,0,0,0,.51,2.11h0a1.58,1.58,0,0,0-.36.69,1.56,1.56,0,0,0,.43,1.4,2.26,2.26,0,0,0,1.18.63,2.23,2.23,0,0,0,1.41-.15,3.32,3.32,0,0,0,.58.67c1.23,1.07,2.06.35,2.29.1a3.34,3.34,0,0,0,.5-.84,3.13,3.13,0,0,1,.47-.82,3,3,0,0,1,.78-.55,3.16,3.16,0,0,0,.8-.58,1.3,1.3,0,0,0,.32-1.25,2.07,2.07,0,0,0-.69-1,3.43,3.43,0,0,0-.75-.48,2.1,2.1,0,0,0,0-1.38,2.14,2.14,0,0,0-.79-1.07ZM150.2,8.36A1,1,0,0,1,150.26,7a1,1,0,0,1,1.33.49,1,1,0,0,1-.06,1.39,1,1,0,0,1-1.33-.49Zm-1.93.78a1.06,1.06,0,0,1,1.41-.22c.57.28.87.83.66,1.24a1.06,1.06,0,0,1-1.41.22c-.57-.28-.87-.83-.66-1.24Zm1.08,3.49c-.55-.11-.94-.52-.85-.91s.6-.62,1.15-.51.94.52.86.91a.94.94,0,0,1-1.16.51Zm4.32-.75c-.87,1-.73,2.48-1.89,1.48a2.87,2.87,0,0,1-.49-3.55,3.07,3.07,0,0,1,3.68.07c1.15,1-.42,1-1.3,2Zm.26-4.27a.89.89,0,0,1-.38,1.18.91.91,0,0,1-1-.72.89.89,0,0,1,.38-1.18c.39-.13.85.2,1,.72Zm0,0"/><path class="cls-2" d="M141.07,29.59a1.63,1.63,0,0,0-1.47-.25,1.52,1.52,0,0,0-.66.43h0a1.89,1.89,0,0,0-2.21-.25,2,2,0,0,0-.31.27,1.78,1.78,0,0,0-.42,1.38,1.89,1.89,0,0,0-1.36.56,1.56,1.56,0,0,0-.23.34,1.76,1.76,0,0,0,.51,2.11h0a1.47,1.47,0,0,0-.35.69,1.53,1.53,0,0,0,.42,1.4,2.26,2.26,0,0,0,1.18.63,2.17,2.17,0,0,0,1.41-.15,3.32,3.32,0,0,0,.58.67c1.23,1.07,2.06.35,2.29.11a3.59,3.59,0,0,0,.5-.85,3.13,3.13,0,0,1,.47-.82,3.21,3.21,0,0,1,.78-.55,3.16,3.16,0,0,0,.8-.58,1.3,1.3,0,0,0,.32-1.25,2.07,2.07,0,0,0-.69-1,3.43,3.43,0,0,0-.75-.48,2.1,2.1,0,0,0,0-1.38,2.14,2.14,0,0,0-.79-1.07Zm-3.87,2.12a1,1,0,0,1,.06-1.39,1,1,0,0,1,1.33.49,1,1,0,0,1-.06,1.39,1,1,0,0,1-1.33-.49Zm-1.93.78a1.06,1.06,0,0,1,1.41-.22c.57.28.87.83.66,1.24a1.06,1.06,0,0,1-1.41.22c-.57-.28-.87-.83-.66-1.24ZM136.35,36c-.55-.11-.94-.52-.85-.91s.6-.62,1.15-.51.94.52.86.91a.94.94,0,0,1-1.16.51Zm4.32-.75c-.87,1-.73,2.48-1.89,1.48a2.87,2.87,0,0,1-.49-3.55,3.07,3.07,0,0,1,3.68.07c1.15,1-.42,1-1.3,2Zm.26-4.27a.89.89,0,0,1-.38,1.18c-.39.12-.84-.2-1-.72a.89.89,0,0,1,.38-1.18.91.91,0,0,1,1,.72Zm0,0"/><rect class="cls-1" x="97.67" y="1.43" width="105.56" height="42.02"/><g class="cls-6"><rect class="cls-1" x="-16.04" y="-40.59" width="105.56" height="42.02"/></g><g class="cls-7"><path class="cls-2" d="M10.49,9.78a2.28,2.28,0,0,0-1.05.33l-.28.13a1.69,1.69,0,0,1-.74.19l-.19,0a4.89,4.89,0,0,0-.66-.05c-.92,0-1.69.35-1.69,1.55a1,1,0,0,0,.22.63h0c.58.74,2.18.9,3.1,1.43a3.9,3.9,0,0,1,.36.25c.43.33.87.76,1.3,1.12a3.41,3.41,0,0,0,.9.56,1.06,1.06,0,0,0,.42.09.91.91,0,0,0,.44-.12c1.23-.67,1-1.65.39-2.53,0-.07-.09-.13-.13-.19a.87.87,0,0,1-.11-.18c-.34-.65,0-1.38-.38-2.08a2.07,2.07,0,0,0-.81-.76,2.61,2.61,0,0,0-.74-.31,2.21,2.21,0,0,0-.35,0"/><path class="cls-2" d="M9,6.56a.86.86,0,0,0-.48.16,3,3,0,0,0-.8.93l0,0c-.44.73-.42,1.54,0,1.81h0a.62.62,0,0,0,.33.08,1,1,0,0,0,.33-.06,2,2,0,0,0,1-.87A4.8,4.8,0,0,0,9.81,8a1.09,1.09,0,0,0,0-1,.88.88,0,0,0-.34-.32A1,1,0,0,0,9,6.56"/><path class="cls-2" d="M15.16,10.18a1.18,1.18,0,0,0-.82.46h0a4.41,4.41,0,0,0-.45.63,1.77,1.77,0,0,0-.26,1.52.65.65,0,0,0,.28.33.73.73,0,0,0,.35.09,1.33,1.33,0,0,0,.38-.07,2.12,2.12,0,0,0,1-.87,1.3,1.3,0,0,0,.1-.15c.41-.7.64-1.39-.06-1.79a1,1,0,0,0-.48-.15"/><path class="cls-2" d="M12,6c-.52,0-1,.5-1.32,1.09l-.05.08c-.5.8-.49,1.7,0,2a.7.7,0,0,0,.38.1h.12a2.07,2.07,0,0,0,1.33-1c.5-.81.84-1.63,0-2.11A1.09,1.09,0,0,0,12,6"/><path class="cls-2" d="M14.27,7.3a1,1,0,0,0-.64.26,4.07,4.07,0,0,0-.74.91c-.46.76-.48,1.6-.06,1.94l.09.06a.7.7,0,0,0,.38.1,1.88,1.88,0,0,0,1.44-1c.45-.72.77-1.45.26-1.94a1.16,1.16,0,0,0-.21-.16l-.1,0a1,1,0,0,0-.42-.11"/><path class="cls-2" d="M56.59,32.44a2.31,2.31,0,0,0-1.06.32,2.44,2.44,0,0,1-.28.14,1.79,1.79,0,0,1-.73.18h-.19a5,5,0,0,0-.66,0c-.92,0-1.69.35-1.69,1.54a1,1,0,0,0,.21.64h0c.58.74,2.18.89,3.09,1.43a4,4,0,0,1,.37.25c.43.32.87.76,1.3,1.11a3.32,3.32,0,0,0,.89.57,1.25,1.25,0,0,0,.42.08.87.87,0,0,0,.44-.11c1.24-.68,1-1.65.4-2.54L59,35.81a1.74,1.74,0,0,1-.11-.18c-.33-.65,0-1.38-.37-2.08a2.16,2.16,0,0,0-.81-.77,2.67,2.67,0,0,0-.74-.3,1.5,1.5,0,0,0-.35,0"/><path class="cls-2" d="M55.11,29.22a.86.86,0,0,0-.48.16,3,3,0,0,0-.79.92l0,0c-.44.74-.42,1.54,0,1.82h0a.76.76,0,0,0,.33.08,1.06,1.06,0,0,0,.34-.06,2.13,2.13,0,0,0,1-.88,5.27,5.27,0,0,0,.35-.66,1.05,1.05,0,0,0,0-1,1,1,0,0,0-.34-.33.93.93,0,0,0-.48-.14"/><path class="cls-2" d="M61.26,32.84a1.13,1.13,0,0,0-.82.45h0a4.3,4.3,0,0,0-.45.62,1.75,1.75,0,0,0-.26,1.53.69.69,0,0,0,.28.33.68.68,0,0,0,.35.09,1,1,0,0,0,.37-.08,2.07,2.07,0,0,0,1-.86l.09-.15c.41-.7.64-1.39,0-1.8a.93.93,0,0,0-.48-.14"/><path class="cls-2" d="M58.08,28.61c-.53,0-.95.51-1.32,1.09l-.06.08c-.49.81-.48,1.71,0,2a.79.79,0,0,0,.38.09h.12a2,2,0,0,0,1.32-1c.5-.8.85-1.63.05-2.1a1,1,0,0,0-.52-.16"/><path class="cls-2" d="M60.36,30a1,1,0,0,0-.64.26,3.6,3.6,0,0,0-.73.91c-.47.76-.49,1.59-.06,1.94l.08.06a.75.75,0,0,0,.38.1,1.94,1.94,0,0,0,1.45-1c.45-.72.77-1.46.26-1.94a1,1,0,0,0-.22-.16l-.09-.05a.89.89,0,0,0-.43-.11"/><path class="cls-2" d="M89.74,33.25c-.72.25-1.66,0-2.12.75s.31,1.41.5,2.17c.15.6-.05,2.1.8,2.09,1.64,0,.84-1.13,1.7-2.62s2.24-1.43,1.41-2.77C91.55,32.08,90.39,33,89.74,33.25Z"/><path class="cls-2" d="M86.85,34.89a.93.93,0,0,0-.36-1.27c-.46-.25-2.08-1.3-2.53-.32s1,1.89,1.59,2S86.59,35.34,86.85,34.89Z"/><path class="cls-2" d="M87.82,37A1,1,0,0,0,87,36c-.53,0-2.42-.06-2.45.71s1.74,1.1,2.27,1.15A1,1,0,0,0,87.82,37Z"/><path class="cls-2" d="M88.32,30.1c-.37.31.22.87.45,1.41s0,.88.12,1.05a1.3,1.3,0,0,0,1.59,0,.92.92,0,0,0,.1-1.32C90.24,30.85,89,29.55,88.32,30.1Z"/><path class="cls-2" d="M88,32.87c.25-.45-.11-1.11-.51-1.44s-1.9-1-2.39-.15,1.13,1.69,1.59,1.95A1,1,0,0,0,88,32.87Z"/><path class="cls-2" d="M67.88,15.43c-1.25-.69.07-1.58-.9-3.09s-2.66-1.77-1.73-3.56c.68-1.29,3.34-.81,5,1.37C72.33,13,69.18,16.15,67.88,15.43Z"/><path class="cls-2" d="M68.45,7.37a.75.75,0,0,0,.94-.44.73.73,0,0,0-.16-1,.76.76,0,0,0-1,.44A.72.72,0,0,0,68.45,7.37Z"/><path class="cls-2" d="M69.68,5.51a.69.69,0,0,0,0-.49.73.73,0,0,0-.4.3C69.19,5.54,69.56,5.73,69.68,5.51Z"/><path class="cls-2" d="M70.1,8.2A.91.91,0,0,0,71.33,8a.86.86,0,0,0,.16-1.21.93.93,0,0,0-1.24.2A.87.87,0,0,0,70.1,8.2Z"/><path class="cls-2" d="M72.15,6.48a.83.83,0,0,0,.2-.55.89.89,0,0,0-.56.21C71.58,6.35,71.94,6.69,72.15,6.48Z"/><path class="cls-2" d="M71.42,9.24a1,1,0,0,0,1.39.12,1,1,0,0,0,.5-1.27A1,1,0,0,0,71.92,8,1,1,0,0,0,71.42,9.24Z"/><path class="cls-2" d="M74.1,7.93a.92.92,0,0,0,.37-.55,1,1,0,0,0-.67.09C73.52,7.64,73.82,8.1,74.1,7.93Z"/><path class="cls-2" d="M71.87,10.86c.09.4.59.62,1.14.51s.9-.52.82-.92a.91.91,0,0,0-1.14-.5C72.15,10.06,71.78,10.47,71.87,10.86Z"/><path class="cls-2" d="M74.56,10.55A.88.88,0,0,0,75,10.2a.9.9,0,0,0-.59-.13A.25.25,0,0,0,74.56,10.55Z"/><path class="cls-2" d="M73.53,12.6c0-.34-.43-.58-.89-.54s-.81.34-.78.68.43.58.89.54S73.56,12.93,73.53,12.6Z"/><path class="cls-2" d="M74.57,12.51a.77.77,0,0,0-.48-.17.21.21,0,0,0,0,.41A.75.75,0,0,0,74.57,12.51Z"/><path class="cls-2" d="M-1.95,38.78c-1.25-.69.07-1.58-.9-3.09s-2.66-1.77-1.73-3.55c.68-1.3,3.34-.82,5,1.36C2.5,36.3-.65,39.5-1.95,38.78Z"/><path class="cls-2" d="M.27,31.55a.91.91,0,0,0,1.23-.2.86.86,0,0,0,.16-1.21.93.93,0,0,0-1.24.2A.87.87,0,0,0,.27,31.55Z"/><path class="cls-2" d="M2.32,29.83a.83.83,0,0,0,.2-.55.89.89,0,0,0-.56.21C1.75,29.7,2.11,30,2.32,29.83Z"/><path class="cls-2" d="M1.59,32.59A1,1,0,0,0,3,32.71a1,1,0,0,0,.5-1.27,1,1,0,0,0-1.39-.11A1,1,0,0,0,1.59,32.59Z"/><path class="cls-2" d="M4.27,31.28a.92.92,0,0,0,.37-.55,1,1,0,0,0-.67.09C3.69,31,4,31.45,4.27,31.28Z"/><path class="cls-2" d="M2,34.21a.9.9,0,0,0,1.14.51c.54-.11.9-.52.82-.91a.9.9,0,0,0-1.14-.51C2.32,33.41,2,33.82,2,34.21Z"/><path class="cls-2" d="M4.73,33.9a.88.88,0,0,0,.48-.35.9.9,0,0,0-.59-.13A.25.25,0,0,0,4.73,33.9Z"/><path class="cls-2" d="M3.7,36c0-.34-.43-.58-.89-.54s-.81.34-.78.68.43.58.89.54S3.73,36.28,3.7,36Z"/><path class="cls-2" d="M4.74,35.86a.77.77,0,0,0-.48-.17.21.21,0,0,0,0,.41A.75.75,0,0,0,4.74,35.86Z"/><path class="cls-2" d="M40.37,6.24A1.64,1.64,0,0,0,38.9,6a1.49,1.49,0,0,0-.67.43h0A1.87,1.87,0,0,0,36,6.17a1.63,1.63,0,0,0-.31.27,1.73,1.73,0,0,0-.42,1.38,1.88,1.88,0,0,0-1.36.56,1.56,1.56,0,0,0-.23.34,1.76,1.76,0,0,0,.51,2.11h0a1.48,1.48,0,0,0-.36.69,1.58,1.58,0,0,0,.42,1.4,2.26,2.26,0,0,0,1.19.63,2.23,2.23,0,0,0,1.41-.15,3.61,3.61,0,0,0,.57.67c1.24,1.07,2.07.35,2.29.1a2.84,2.84,0,0,0,.5-.84,3.47,3.47,0,0,1,.48-.82,3,3,0,0,1,.78-.55,3.35,3.35,0,0,0,.8-.58,1.27,1.27,0,0,0,.31-1.25,2,2,0,0,0-.68-1,3.68,3.68,0,0,0-.75-.48,2,2,0,0,0,0-1.38,2.19,2.19,0,0,0-.78-1.07ZM36.49,8.36A1,1,0,0,1,36.55,7a1,1,0,0,1,1.34.49,1,1,0,0,1-.06,1.39,1,1,0,0,1-1.34-.49Zm-1.92.78A1.06,1.06,0,0,1,36,8.92c.57.28.86.83.66,1.24a1.06,1.06,0,0,1-1.41.22c-.58-.28-.87-.83-.66-1.24Zm1.08,3.49c-.56-.11-.94-.52-.86-.91A.94.94,0,0,1,36,11.21c.55.11.94.52.85.91s-.6.62-1.15.51ZM40,11.88c-.88,1-.74,2.48-1.89,1.48a2.87,2.87,0,0,1-.49-3.55,3.06,3.06,0,0,1,3.67.07c1.15,1-.41,1-1.29,2Zm.26-4.27a.89.89,0,0,1-.38,1.18.93.93,0,0,1-1-.72.9.9,0,0,1,.39-1.18c.38-.13.84.2,1,.72Zm0,0"/><path class="cls-2" d="M27.37,29.59a1.64,1.64,0,0,0-1.47-.25,1.49,1.49,0,0,0-.67.43h0A1.89,1.89,0,0,0,23,29.52a1.63,1.63,0,0,0-.31.27,1.74,1.74,0,0,0-.42,1.38,1.88,1.88,0,0,0-1.36.56,1.56,1.56,0,0,0-.23.34,1.76,1.76,0,0,0,.51,2.11h0a1.5,1.5,0,0,0,.06,2.09,2.26,2.26,0,0,0,1.19.63,2.17,2.17,0,0,0,1.41-.15,3.61,3.61,0,0,0,.57.67c1.24,1.07,2.07.35,2.29.11a3,3,0,0,0,.5-.85,3.47,3.47,0,0,1,.48-.82,3,3,0,0,1,.78-.55,3.16,3.16,0,0,0,.8-.58,1.27,1.27,0,0,0,.31-1.25,2,2,0,0,0-.68-1,3.68,3.68,0,0,0-.75-.48,2.1,2.1,0,0,0,0-1.38,2.27,2.27,0,0,0-.79-1.07Zm-3.88,2.12a1,1,0,0,1,.06-1.39,1,1,0,0,1,1.34.49,1,1,0,0,1-.06,1.39,1,1,0,0,1-1.34-.49Zm-1.92.78A1.06,1.06,0,0,1,23,32.27c.57.28.86.83.66,1.24a1.06,1.06,0,0,1-1.41.22c-.58-.28-.87-.83-.66-1.24ZM22.65,36c-.56-.11-.94-.52-.86-.91A.94.94,0,0,1,23,34.56c.55.11.94.52.85.91s-.6.62-1.15.51ZM27,35.23c-.88,1-.74,2.48-1.89,1.48a2.87,2.87,0,0,1-.49-3.55,3.06,3.06,0,0,1,3.67.07c1.15,1-.41,1-1.29,2ZM27.23,31a.89.89,0,0,1-.38,1.18.93.93,0,0,1-1-.72.9.9,0,0,1,.39-1.18c.38-.13.84.2,1,.72Zm0,0"/><rect class="cls-1" x="-16.04" y="1.43" width="105.56" height="42.02"/></g></g></g></svg>