<svg viewBox="0 0 85 60" xmlns="http://www.w3.org/2000/svg" xmlns:xlink="http://www.w3.org/1999/xlink"><clipPath id="a"><path d="m-127.36 62.45h582.05v107.09h-582.05z"/></clipPath><g fill="#dbad3a"><path d="m2 48.66a4.61 4.61 0 0 1 0-1.43 4.92 4.92 0 0 1 .46-1.37 4.07 4.07 0 0 1 .81-1.11 2.65 2.65 0 0 1 1.11-.67 2.53 2.53 0 0 1 1.11-.08 3.19 3.19 0 0 1 1.21.42c0-.2.12-.51.21-.9s.18-.82.28-1.27.19-.91.29-1.36.16-.83.22-1.16a.6.6 0 0 1 .3-.49.81.81 0 0 1 .53-.07.89.89 0 0 1 .48.27.6.6 0 0 1 .15.56c-.06.46-.16 1-.27 1.65s-.23 1.35-.35 2.05-.22 1.43-.32 2.15-.14 1.37-.16 2a7.42 7.42 0 0 0 .1 1.51 1 1 0 0 0 .46.77.42.42 0 0 0 .38-.13 1.56 1.56 0 0 0 .44-.42 3 3 0 0 0 .37-.7 3.48 3.48 0 0 0 .19-.88.77.77 0 0 1 .33-.5.58.58 0 0 1 .44-.06.72.72 0 0 1 .37.28.6.6 0 0 1 .09.49 4.39 4.39 0 0 1 -.23 1.07 5 5 0 0 1 -.56 1.14 3.44 3.44 0 0 1 -.84.9 1.81 1.81 0 0 1 -1.11.37 1.27 1.27 0 0 1 -.68-.19 2.74 2.74 0 0 1 -.52-.5 2.92 2.92 0 0 1 -.4-.59 3.33 3.33 0 0 1 -.24-.59 3.33 3.33 0 0 1 -.81.82 2.55 2.55 0 0 1 -.94.42 2.31 2.31 0 0 1 -1 0 2.27 2.27 0 0 1 -.88-.4 2.67 2.67 0 0 1 -.69-.82 3.36 3.36 0 0 1 -.33-1.18zm4.46-2.46a1.8 1.8 0 0 0 -.79-.47 1.24 1.24 0 0 0 -.74 0 1.37 1.37 0 0 0 -.55.33 3 3 0 0 0 -.43.55 3.1 3.1 0 0 0 -.28.7 2.59 2.59 0 0 0 -.08.78 1.5 1.5 0 0 0 .41 1.16 1 1 0 0 0 .83.25 1.49 1.49 0 0 0 .71-.41 2.11 2.11 0 0 0 .53-.92c.05-.15.09-.32.14-.5s.09-.36.13-.54.07-.35.09-.51a4.12 4.12 0 0 0 .03-.42z"/><path d="m14.82 44.83a5.53 5.53 0 0 1 -.26 1.42 4.14 4.14 0 0 1 -.66 1.29 3.49 3.49 0 0 1 -1.07.92 2.63 2.63 0 0 1 -1.44.29 5.67 5.67 0 0 0 .1.84 2.07 2.07 0 0 0 .28.71 1.08 1.08 0 0 0 .51.41 1.31 1.31 0 0 0 .82 0 2.91 2.91 0 0 0 1-.47 4.15 4.15 0 0 0 .82-.75 4.64 4.64 0 0 0 .6-.89 3.86 3.86 0 0 0 .36-.93.38.38 0 0 1 .27-.3.78.78 0 0 1 .45 0 .91.91 0 0 1 .4.24.44.44 0 0 1 .1.41c-.21.54-.41 1-.61 1.45a6.76 6.76 0 0 1 -.68 1.13 4.3 4.3 0 0 1 -.82.83 4.46 4.46 0 0 1 -1.09.56 3.84 3.84 0 0 1 -1.54.26 2.47 2.47 0 0 1 -1.23-.37 2.44 2.44 0 0 1 -.83-1 4 4 0 0 1 -.34-1.52c0-.28 0-.62 0-1s0-.82.07-1.26a13 13 0 0 1 .23-1.34 6.23 6.23 0 0 1 .43-1.26 3.72 3.72 0 0 1 .67-1 2.33 2.33 0 0 1 1-.64 2.26 2.26 0 0 1 1-.13 1.7 1.7 0 0 1 .83.3 1.76 1.76 0 0 1 .57.71 2.57 2.57 0 0 1 .06 1.09zm-1.82-.37a.35.35 0 0 0 -.38 0 1.2 1.2 0 0 0 -.37.35 2.7 2.7 0 0 0 -.29.59 4.33 4.33 0 0 0 -.21.7 6.38 6.38 0 0 0 -.13.69 1.91 1.91 0 0 0 0 .52 1.86 1.86 0 0 0 1-.54 2.31 2.31 0 0 0 .53-.88 2.07 2.07 0 0 0 .1-.87.68.68 0 0 0 -.25-.56z"/><path d="m22.42 51.36a1.91 1.91 0 0 1 -1.37-.48 2.57 2.57 0 0 1 -.7-1.24 5 5 0 0 1 -.12-1.64 7.14 7.14 0 0 1 .39-1.81 7.75 7.75 0 0 1 .81-1.63 3.69 3.69 0 0 1 1.16-1.14 2.26 2.26 0 0 1 1.41-.37 2.76 2.76 0 0 1 1.6.77.43.43 0 0 1 .37-.3 1.07 1.07 0 0 1 .56.06 1.05 1.05 0 0 1 .46.35.65.65 0 0 1 .07.6c-.07.27-.15.59-.26 1s-.2.78-.3 1.2-.18.83-.25 1.25a5.9 5.9 0 0 0 -.1 1.13 2 2 0 0 0 .15.83.53.53 0 0 0 .49.36 1.07 1.07 0 0 0 .8-.29 2.94 2.94 0 0 0 .66-.8 5.54 5.54 0 0 0 .49-1 5 5 0 0 0 .26-.94c.06-.24.17-.39.33-.43a.63.63 0 0 1 .45.05.87.87 0 0 1 .36.35.44.44 0 0 1 0 .44 6.59 6.59 0 0 1 -.39 1.3 7.17 7.17 0 0 1 -.75 1.34 5 5 0 0 1 -1 1.11 1.87 1.87 0 0 1 -1.86.35 2 2 0 0 1 -.61-.33 2.68 2.68 0 0 1 -.52-.58 2.44 2.44 0 0 1 -.32-.86c-.09.1-.2.23-.35.38a3.92 3.92 0 0 1 -.53.45 4.07 4.07 0 0 1 -.65.37 1.83 1.83 0 0 1 -.74.15zm0-1.77a1.12 1.12 0 0 0 .8-.21 2.56 2.56 0 0 0 .62-.68 4.56 4.56 0 0 0 .45-1c.12-.36.22-.71.3-1s.15-.64.19-.92.08-.48.1-.6a1.4 1.4 0 0 0 -.85-.4 1.18 1.18 0 0 0 -.72.22 2.11 2.11 0 0 0 -.59.66 5 5 0 0 0 -.43.93 5.09 5.09 0 0 0 -.26 1 4.78 4.78 0 0 0 -.08 1 1.66 1.66 0 0 0 .13.72c.06.16.17.27.32.28z"/><path d="m28.88 48.66a4.61 4.61 0 0 1 .05-1.43 4.92 4.92 0 0 1 .46-1.37 4.53 4.53 0 0 1 .81-1.11 2.78 2.78 0 0 1 1.11-.67 2.53 2.53 0 0 1 1.07-.1 3.13 3.13 0 0 1 1.21.42c.06-.2.13-.51.21-.9l.28-1.27c.1-.46.19-.91.29-1.36s.17-.83.22-1.16a.61.61 0 0 1 .32-.47.81.81 0 0 1 .53-.07 1 1 0 0 1 .48.27.66.66 0 0 1 .15.56c-.07.46-.16 1-.28 1.65s-.24 1.33-.35 2.05-.23 1.43-.32 2.15a16.1 16.1 0 0 0 -.16 2 6.83 6.83 0 0 0 .09 1.51 1 1 0 0 0 .46.77.41.41 0 0 0 .41-.05 1.44 1.44 0 0 0 .44-.42 2.7 2.7 0 0 0 .37-.7 3.14 3.14 0 0 0 .18-.94.77.77 0 0 1 .33-.5.6.6 0 0 1 .45-.06.74.74 0 0 1 .36.28.64.64 0 0 1 .1.49 4.44 4.44 0 0 1 -.23 1.09 5 5 0 0 1 -.55 1.14 3.65 3.65 0 0 1 -.85.9 1.78 1.78 0 0 1 -1.1.37 1.22 1.22 0 0 1 -.68-.19 2.54 2.54 0 0 1 -.56-.47 2.92 2.92 0 0 1 -.4-.59 3.22 3.22 0 0 1 -.23-.59 3.54 3.54 0 0 1 -.82.82 2.48 2.48 0 0 1 -.94.42 2.27 2.27 0 0 1 -1 0 2.31 2.31 0 0 1 -.89-.4 2.79 2.79 0 0 1 -.68-.82 3.36 3.36 0 0 1 -.34-1.25zm4.47-2.46a1.75 1.75 0 0 0 -.79-.47 1.33 1.33 0 0 0 -.74 0 1.28 1.28 0 0 0 -.54.33 2.33 2.33 0 0 0 -.43.55 2.72 2.72 0 0 0 -.29.7 3 3 0 0 0 -.08.78 1.54 1.54 0 0 0 .4 1.14 1 1 0 0 0 .83.25 1.49 1.49 0 0 0 .71-.41 2.11 2.11 0 0 0 .53-.92c0-.15.1-.32.15-.5s.09-.36.12-.54.07-.35.09-.51a2.43 2.43 0 0 0 .04-.4z"/><path d="m47 43.81a.56.56 0 0 1 .34-.47 1.09 1.09 0 0 1 .59-.08 1.25 1.25 0 0 1 .55.22.5.5 0 0 1 .21.46l-.14 1.75a3.21 3.21 0 0 1 .54-1 4 4 0 0 1 .9-.84 3.1 3.1 0 0 1 1.1-.49 1.85 1.85 0 0 1 1.18.12 2.31 2.31 0 0 1 1.08 1 4.52 4.52 0 0 1 .51 1.58 6.84 6.84 0 0 1 0 1.81 6.7 6.7 0 0 1 -.41 1.67 5.67 5.67 0 0 0 1.19-.84 8 8 0 0 0 1.24-1.55.26.26 0 0 1 .35 0 .77.77 0 0 1 .25.38 1.66 1.66 0 0 1 .05.6 1 1 0 0 1 -.24.58 5.11 5.11 0 0 1 -.88 1.18 6.83 6.83 0 0 1 -1.23 1 7.8 7.8 0 0 1 -1.46.69 7.19 7.19 0 0 1 -1.56.36 5.73 5.73 0 0 1 -1.55 0 4.17 4.17 0 0 1 -1.4-.49c-.08.85-.15 1.57-.21 2.17s-.1 1.1-.15 1.51-.07.72-.1 1 0 .41 0 .54a2.36 2.36 0 0 1 0 .26v.07c0 .12-.13.21-.32.29a1.62 1.62 0 0 1 -.58.11 1.2 1.2 0 0 1 -.55-.12.4.4 0 0 1 -.22-.42c0-.22.07-.58.11-1.07s.09-1 .13-1.69.1-1.33.16-2.07.11-1.48.17-2.23.11-1.46.16-2.15.08-1.31.12-1.86.07-1 .1-1.32-.03-.63-.03-.66zm4.93 1.4a.7.7 0 0 0 -.64-.18 1.71 1.71 0 0 0 -.72.39 4.24 4.24 0 0 0 -.72.78 6.5 6.5 0 0 0 -.6 1 5.3 5.3 0 0 0 -.41 1.08 2.68 2.68 0 0 0 -.11 1 1.34 1.34 0 0 0 .49.86 1.49 1.49 0 0 0 .84.29 2.08 2.08 0 0 0 .93-.2 1.83 1.83 0 0 0 .74-.61 3.25 3.25 0 0 0 .4-.94 6.94 6.94 0 0 0 .24-1.3 6 6 0 0 0 0-1.28 1.51 1.51 0 0 0 -.47-.89z"/><path d="m60.45 46.07a1.06 1.06 0 0 1 -.4.49.67.67 0 0 1 -.5.12.74.74 0 0 1 -.46-.24 1.12 1.12 0 0 1 -.28-.6c0-.12 0-.27 0-.46s0-.36.07-.53a2.19 2.19 0 0 0 0-.46.28.28 0 0 0 -.23-.22 1.57 1.57 0 0 0 -.57.62 4.47 4.47 0 0 0 -.39 1 6.11 6.11 0 0 0 -.22 1.16 7.63 7.63 0 0 0 0 1.16 4.16 4.16 0 0 0 .14 1 1.29 1.29 0 0 0 .34.64 1.12 1.12 0 0 0 .63.32 1.84 1.84 0 0 0 .7 0 4.2 4.2 0 0 0 .71-.21 3.65 3.65 0 0 0 .8-.46 4 4 0 0 0 .78-.76 4.6 4.6 0 0 0 .66-1.17.44.44 0 0 1 .34-.26.91.91 0 0 1 .49.05.72.72 0 0 1 .38.31.52.52 0 0 1 0 .52 5.18 5.18 0 0 1 -.7 1.19 6.28 6.28 0 0 1 -1.9 1.6 9 9 0 0 1 -1 .46 4 4 0 0 1 -.81.22 3 3 0 0 1 -.85 0 2.61 2.61 0 0 1 -.83-.22 2.07 2.07 0 0 1 -.71-.56 3.31 3.31 0 0 1 -.64-1.1 6.11 6.11 0 0 1 -.26-1.39 7.67 7.67 0 0 1 0-1.51 9.69 9.69 0 0 1 .31-1.48 6.13 6.13 0 0 1 .62-1.3 3.07 3.07 0 0 1 .8-.9 2.38 2.38 0 0 1 1.44-.46 1.37 1.37 0 0 1 1.09.66.74.74 0 0 1 .52.33.76.76 0 0 1 .11.65z"/><path d="m62.75 43.91a1 1 0 0 1 .58-.32.83.83 0 0 1 .52.1.78.78 0 0 1 .33.4.85.85 0 0 1 0 .57 5.73 5.73 0 0 0 -.27.78c-.08.32-.16.66-.22 1s-.12.73-.16 1.11a9.68 9.68 0 0 0 0 1 4.54 4.54 0 0 0 .09.81.62.62 0 0 0 .27.42.59.59 0 0 0 .39 0 1 1 0 0 0 .44-.31 3.55 3.55 0 0 0 .5-.76 10.39 10.39 0 0 0 .57-1.37.46.46 0 0 1 .32-.26.58.58 0 0 1 .39 0 .55.55 0 0 1 .3.24.54.54 0 0 1 0 .42 10.32 10.32 0 0 1 -.41 1.26 6.89 6.89 0 0 1 -.73 1.3 3.67 3.67 0 0 1 -1 1 1.5 1.5 0 0 1 -1.24.18 1.69 1.69 0 0 1 -.93-.69 3.25 3.25 0 0 1 -.49-1.22 6.9 6.9 0 0 1 -.1-1.57 13.77 13.77 0 0 1 .15-1.6 11.17 11.17 0 0 1 .31-1.4 5.11 5.11 0 0 1 .39-1.09zm.41-1.29a.9.9 0 0 1 -.22-.73.82.82 0 0 1 .31-.55.79.79 0 0 1 .59-.16 1 1 0 0 1 .65.42.8.8 0 0 1 .1.65 1 1 0 0 1 -.32.51.9.9 0 0 1 -.56.19.68.68 0 0 1 -.55-.33z"/><path d="m70 43.07a2 2 0 0 1 1.17-.07 1.58 1.58 0 0 1 .81.49 2.73 2.73 0 0 1 .52.92 5.22 5.22 0 0 1 .26 1.15v.62s0 .45 0 .68 0 .44 0 .65-.06.4-.1.57a2.71 2.71 0 0 0 .61-.09 4.77 4.77 0 0 0 .5-.19c.15-.07.29-.15.43-.23a2.86 2.86 0 0 1 .42-.24.42.42 0 0 1 .44 0 .52.52 0 0 1 .24.32 1.17 1.17 0 0 1 0 .46.6.6 0 0 1 -.19.39 4.34 4.34 0 0 1 -1.49.9 5.08 5.08 0 0 1 -1.64.27 3.8 3.8 0 0 1 -1.41 1.48 3.74 3.74 0 0 1 -1.88.52 3 3 0 0 1 -1.6-.38 3 3 0 0 1 -1-1 3.73 3.73 0 0 1 -.51-1.45 5.63 5.63 0 0 1 0-1.64 5.84 5.84 0 0 1 .42-1.7 5.09 5.09 0 0 1 1-1.37 3.81 3.81 0 0 1 1.34-.88 3.5 3.5 0 0 1 1.66-.18zm-1 1.63a1.62 1.62 0 0 0 -.83.5 3.68 3.68 0 0 0 -.65 1 4.49 4.49 0 0 0 -.38 1.21 3.66 3.66 0 0 0 0 1.23 2.21 2.21 0 0 0 .44 1 1.62 1.62 0 0 0 1 .55 1.16 1.16 0 0 0 .51 0 2.08 2.08 0 0 0 .55-.25 2.68 2.68 0 0 0 .49-.4 1.72 1.72 0 0 0 .33-.48 2.51 2.51 0 0 1 -.67-.58 3.53 3.53 0 0 1 -.47-.75 4.13 4.13 0 0 1 -.37-1.45 4.93 4.93 0 0 1 .05-1.58zm1.43-2.7a.41.41 0 0 1 -.43.17 1.06 1.06 0 0 1 -.54-.21 1.15 1.15 0 0 1 -.38-.44.48.48 0 0 1 .06-.51l1.65-2.18a.54.54 0 0 1 .47-.25 1.08 1.08 0 0 1 .55.17.91.91 0 0 1 .37.45.6.6 0 0 1 -.1.59zm.34 2.81a.87.87 0 0 0 -.45.67 2.22 2.22 0 0 0 .08.88 2.9 2.9 0 0 0 .35.8 1.36 1.36 0 0 0 .38.44.57.57 0 0 0 .14-.33 5 5 0 0 0 .06-.61 5.5 5.5 0 0 0 0-.7 3.71 3.71 0 0 0 -.1-.65 1.26 1.26 0 0 0 -.18-.43.19.19 0 0 0 -.28-.11z"/><path d="m73.91 44.76a1 1 0 0 1 .34-.68.77.77 0 0 1 .56-.19.74.74 0 0 1 .53.27 1.06 1.06 0 0 1 .25.72v.32a7.08 7.08 0 0 1 .57-.68 3.79 3.79 0 0 1 .67-.6 2.29 2.29 0 0 1 .8-.39 2.11 2.11 0 0 1 .94 0 1.7 1.7 0 0 1 .85.45 2.07 2.07 0 0 1 .47.8 4.26 4.26 0 0 1 .18 1 10.84 10.84 0 0 1 0 1.14c0 .38-.06.76-.11 1.12s-.09.69-.12 1a4.61 4.61 0 0 0 0 .69c0 .17 0 .26.13.27a.74.74 0 0 0 .46-.11 1.9 1.9 0 0 0 .5-.46 4.21 4.21 0 0 0 .5-.81 5.68 5.68 0 0 0 .41-1.15q.08-.3.3-.33a.68.68 0 0 1 .46.08 1.11 1.11 0 0 1 .39.36.59.59 0 0 1 .07.5 10.72 10.72 0 0 1 -.63 1.5 5.82 5.82 0 0 1 -.8 1.2 3 3 0 0 1 -1 .74 1.67 1.67 0 0 1 -1.08.14 1.57 1.57 0 0 1 -.87-.44 1.74 1.74 0 0 1 -.43-.76 3.07 3.07 0 0 1 -.11-1 10.18 10.18 0 0 1 .08-1.08c0-.36.1-.72.16-1.07a9.35 9.35 0 0 0 .1-1 2.44 2.44 0 0 0 -.08-.71.47.47 0 0 0 -.36-.37.88.88 0 0 0 -.74.16 2.86 2.86 0 0 0 -.66.74 7.44 7.44 0 0 0 -.56 1.13c-.16.42-.31.86-.43 1.3a10.77 10.77 0 0 0 -.29 1.29 8.49 8.49 0 0 0 -.12 1.15.59.59 0 0 1 -.29.35 1.07 1.07 0 0 1 -.52.17.86.86 0 0 1 -.54-.11.69.69 0 0 1 -.34-.54 4 4 0 0 1 0-.58c0-.22 0-.55.08-1s.08-1 .12-1.72.11-1.65.16-2.81z"/></g><path d="m42.05 46.64a1.32 1.32 0 0 0 -.66.16l-.18.07a1 1 0 0 1 -.45.09h-.11l-.4-.06c-.56 0-1 .15-1.1.9a.61.61 0 0 0 .11.4c.32.49 1.29.65 1.82 1l.21.17c.25.22.5.51.75.75a1.82 1.82 0 0 0 .52.39.55.55 0 0 0 .25.07.52.52 0 0 0 .27 0c.78-.37.68-1 .35-1.57l-.08-.12-.06-.12c-.17-.42.07-.85-.14-1.31a1.18 1.18 0 0 0 -.46-.51 1.59 1.59 0 0 0 -.43-.22h-.21" fill="#fff"/><path d="m41.29 44.57a.46.46 0 0 0 -.3.08 1.93 1.93 0 0 0 -.52.54c-.3.44-.32.94-.05 1.13a.36.36 0 0 0 .2.06.52.52 0 0 0 .21 0 1.26 1.26 0 0 0 .65-.51 2.36 2.36 0 0 0 .24-.4.68.68 0 0 0 0-.6.53.53 0 0 0 -.19-.21.58.58 0 0 0 -.28-.11" fill="#fff"/><path d="m44.87 47.08a.7.7 0 0 0 -.52.25 3 3 0 0 0 -.3.37 1.09 1.09 0 0 0 -.22.94.41.41 0 0 0 .15.21.46.46 0 0 0 .21.08.67.67 0 0 0 .24 0 1.26 1.26 0 0 0 .62-.49l.06-.1c.28-.41.45-.84 0-1.12a.62.62 0 0 0 -.29-.11" fill="#fff"/><path d="m43.11 44.31c-.31 0-.59.28-.85.63v.05c-.34.48-.37 1-.07 1.25a.52.52 0 0 0 .23.08h.07a1.24 1.24 0 0 0 .85-.58c.34-.48.58-1 .11-1.31a.67.67 0 0 0 -.31-.12" fill="#fff"/><path d="m44.45 45.25a.6.6 0 0 0 -.4.13 2.34 2.34 0 0 0 -.49.54c-.31.46-.36 1-.12 1.21h.05a.49.49 0 0 0 .23.08 1.17 1.17 0 0 0 .92-.57c.3-.43.53-.88.24-1.2a.43.43 0 0 0 -.12-.11h-.06a.66.66 0 0 0 -.25-.08" fill="#fff"/><path d="m42.16 52.89a5.55 5.55 0 1 1 5.53-6.06 5.55 5.55 0 0 1 -5 6zm0-9.6h-.37a4 4 0 1 0 .74 8 4 4 0 0 0 2.74-1.44 4.05 4.05 0 0 0 .92-3 4 4 0 0 0 -4-3.68z" fill="#dbad3a"/><path d="m22.46 20.37.05-.14a22.74 22.74 0 0 1 21-14.38 22 22 0 0 1 13.25 4.42 4.51 4.51 0 0 0 -.21 1.37 4.26 4.26 0 0 0 4.13 4.36 4.34 4.34 0 0 0 1.32-.25 24.13 24.13 0 0 1 2.45 4.49l.06.14v.11h12.1v-3.1-.1h-10.12a27.29 27.29 0 0 0 -2.1-3.56 4.37 4.37 0 0 0 .52-2.11 4.29 4.29 0 0 0 -4.2-4.36 4 4 0 0 0 -2.07.57 25 25 0 0 0 -15.16-5.12 25.94 25.94 0 0 0 -23 14.64h-10.31v3.11h12.29zm38.25-11.14a2.35 2.35 0 1 1 -2.27 2.35 2.32 2.32 0 0 1 2.27-2.35z" fill="#fff"/><path d="m19.75 28.82a3.4 3.4 0 0 0 .54-1.82 3.27 3.27 0 0 0 -1-2.39 4.2 4.2 0 0 0 -3.06-.89h-6.08v10.48h1.73v-4.07h4.48a3.77 3.77 0 0 0 3.39-1.31zm-1.94-.57a2.86 2.86 0 0 1 -1.64.33h-4.31v-3.35h4.14a2.74 2.74 0 0 1 2 .54 1.58 1.58 0 0 1 .41 1.12 1.61 1.61 0 0 1 -.6 1.36z" fill="#fff"/><path d="m27.34 23.44c-3 0-6.07 1.74-6.07 5.63a5 5 0 0 0 2.05 4.25 6.8 6.8 0 0 0 4.12 1.16c3 0 6.06-1.67 6.06-5.39 0-3.36-2.5-5.63-6.16-5.65zm.1 9.45a4.44 4.44 0 0 1 -3.63-1.41 3.93 3.93 0 0 1 -.81-2.48c0-2.85 2.17-3.92 4.21-4h.18c2.66 0 4.39 1.54 4.39 3.93-.01.94-.32 3.96-4.34 3.96z" fill="#fff"/><path d="m43 29.85a2.83 2.83 0 0 0 2.49-3 3 3 0 0 0 -.92-2.3 3.93 3.93 0 0 0 -2.86-.86h-6.83v10.51h1.72v-4.07h4.48l3.31 4.07h2.25zm-6.41-1.24v-3.37h5.25c.6 0 1.23 0 1.62.68a1.85 1.85 0 0 1 .26 1 1.57 1.57 0 0 1 -.3 1 2.46 2.46 0 0 1 -2.15.72z" fill="#fff"/><path d="m56.49 23.69h-9.71v1.54h3.99v8.97h1.71v-8.97h4.01z" fill="#fff"/><path d="m65.26 34.2h1.96l-5.18-10.51h-1.67l-5.22 10.51h1.92l4.04-8.23z" fill="#fff"/><path d="m70.14 32.63v-8.94h-1.71v10.51h8.2v-1.57z" fill="#fff"/><g clip-path="url(#a)"><g opacity=".1"><path d="m-7.65-40.55h113.7v42.02h-113.7z" fill="none"/><path d="m-2.28-40.55h105.56v42.02h-105.56z" fill="none"/><path d="m-7.65 1.47h113.7v42.02h-113.7z" fill="none"/><g fill="#fff"><path d="m24.25 9.82a2.24 2.24 0 0 0 -1.06.33l-.28.13a1.61 1.61 0 0 1 -.73.19h-.19a4.89 4.89 0 0 0 -.66 0c-.92 0-1.69.35-1.69 1.55a1 1 0 0 0 .22.63c.58.74 2.18.89 3.1 1.43a3.9 3.9 0 0 1 .36.25c.43.33.87.76 1.3 1.11a3.21 3.21 0 0 0 .9.57 1.25 1.25 0 0 0 .42.08.86.86 0 0 0 .43-.11c1.24-.67 1-1.65.4-2.53 0-.07-.09-.13-.13-.19a.87.87 0 0 1 -.11-.18c-.34-.65 0-1.38-.38-2.08a2.07 2.07 0 0 0 -.81-.76 2.73 2.73 0 0 0 -.74-.31 2.21 2.21 0 0 0 -.35 0"/><path d="m22.78 6.6a.86.86 0 0 0 -.48.16 3 3 0 0 0 -.8.93c-.44.74-.42 1.55 0 1.82a.68.68 0 0 0 .34.08 1 1 0 0 0 .33-.06 2 2 0 0 0 1-.87 4.8 4.8 0 0 0 .4-.66 1.09 1.09 0 0 0 0-1 .88.88 0 0 0 -.34-.32 1 1 0 0 0 -.48-.15"/><path d="m28.92 10.22a1.14 1.14 0 0 0 -.82.46 4.94 4.94 0 0 0 -.45.62 1.79 1.79 0 0 0 -.26 1.53.69.69 0 0 0 .28.33.73.73 0 0 0 .35.09 1.08 1.08 0 0 0 .38-.08 2 2 0 0 0 1-.86l.1-.15c.4-.7.64-1.39-.06-1.8a.93.93 0 0 0 -.48-.14"/><path d="m25.74 6c-.52 0-.95.5-1.32 1.09l-.05.08c-.5.8-.49 1.7 0 2a.8.8 0 0 0 .38.1h.12a2.07 2.07 0 0 0 1.33-1c.5-.81.84-1.63 0-2.11a1.09 1.09 0 0 0 -.46-.16"/><path d="m28 7.34a1.05 1.05 0 0 0 -.65.26 4.09 4.09 0 0 0 -.73.91c-.46.76-.48 1.6-.06 1.94a.47.47 0 0 0 .09.06.7.7 0 0 0 .38.1 1.88 1.88 0 0 0 1.44-1c.45-.72.77-1.45.26-1.94a1 1 0 0 0 -.22-.16h-.09a1 1 0 0 0 -.42-.17"/><path d="m70.35 32.48a2.31 2.31 0 0 0 -1.06.32l-.28.14a1.79 1.79 0 0 1 -.73.18h-.19a5 5 0 0 0 -.66 0c-.92 0-1.69.34-1.69 1.54a1 1 0 0 0 .21.64c.58.74 2.18.89 3.09 1.43a2.68 2.68 0 0 1 .37.25c.43.32.87.76 1.3 1.11a3.32 3.32 0 0 0 .89.57 1.25 1.25 0 0 0 .42.08.87.87 0 0 0 .44-.11c1.24-.68 1-1.65.4-2.54l-.14-.19a1 1 0 0 1 -.11-.17c-.33-.66 0-1.38-.37-2.08a2.16 2.16 0 0 0 -.81-.77 2.67 2.67 0 0 0 -.74-.3 1.5 1.5 0 0 0 -.35 0"/><path d="m68.87 29.26a.86.86 0 0 0 -.48.16 3 3 0 0 0 -.79.92c-.44.74-.42 1.54 0 1.82a.73.73 0 0 0 .33.08 1.06 1.06 0 0 0 .34-.06 2.13 2.13 0 0 0 1-.88 6.07 6.07 0 0 0 .35-.66 1.07 1.07 0 0 0 0-1 1 1 0 0 0 -.34-.32.93.93 0 0 0 -.48-.14"/><path d="m75 32.88a1.13 1.13 0 0 0 -.82.45 4.3 4.3 0 0 0 -.45.62 1.75 1.75 0 0 0 -.26 1.53.63.63 0 0 0 .28.32.6.6 0 0 0 .35.1 1 1 0 0 0 .37-.08 2.07 2.07 0 0 0 1-.86l.09-.16c.41-.69.64-1.38 0-1.79a.93.93 0 0 0 -.48-.14"/><path d="m71.84 28.65c-.53 0-1 .51-1.32 1.09l-.06.08c-.49.81-.48 1.7 0 2a.7.7 0 0 0 .38.1h.16a2 2 0 0 0 1.32-1c.5-.8.85-1.63 0-2.1a1 1 0 0 0 -.51-.16"/><path d="m74.12 30a1 1 0 0 0 -.64.26 3.6 3.6 0 0 0 -.73.91c-.47.76-.49 1.59-.06 1.94l.08.06a.75.75 0 0 0 .38.1 1.94 1.94 0 0 0 1.45-1c.45-.72.77-1.46.26-1.94a1 1 0 0 0 -.22-.16l-.09-.06a1 1 0 0 0 -.43-.1"/><path d="m-1.78 9.94c-.72.25-1.67 0-2.12.74s.31 1.42.5 2.18c.15.6-.06 2.1.8 2.08 1.64 0 .84-1.12 1.7-2.61s2.24-1.43 1.41-2.77c-.51-.79-1.64.16-2.29.38z"/><path d="m81.64 15.47c-1.25-.69.07-1.59-.9-3.09s-2.66-1.77-1.74-3.56c.68-1.29 3.34-.81 5 1.37 2.09 2.81-1.06 6-2.36 5.28z"/><path d="m82.21 7.41a.75.75 0 0 0 .94-.41.73.73 0 0 0 -.15-1 .76.76 0 0 0 -1 .4.72.72 0 0 0 .21 1.01z"/><path d="m83.44 5.55a.69.69 0 0 0 0-.49.73.73 0 0 0 -.4.3c-.04.22.28.41.4.19z"/><path d="m83.86 8.24a.91.91 0 0 0 1.23-.24.87.87 0 0 0 .16-1.21.93.93 0 0 0 -1.25.21.87.87 0 0 0 -.14 1.24z"/><path d="m11.81 38.82c-1.25-.69.07-1.58-.9-3.09s-2.66-1.73-1.73-3.56c.68-1.29 3.34-.81 5 1.37 2.08 2.8-1.07 6-2.37 5.28z"/><path d="m12.38 30.76a.75.75 0 0 0 .94-.44.72.72 0 0 0 -.16-1 .76.76 0 0 0 -.95.44.72.72 0 0 0 .17 1z"/><path d="m13.61 28.9a.69.69 0 0 0 0-.49.73.73 0 0 0 -.4.3c-.09.22.28.41.4.19z"/><path d="m14 31.59a.91.91 0 0 0 1.23-.2.86.86 0 0 0 .16-1.21.93.93 0 0 0 -1.24.2.87.87 0 0 0 -.15 1.21z"/><path d="m16.08 29.87a.83.83 0 0 0 .2-.55.89.89 0 0 0 -.56.21c-.21.21.15.55.36.34z"/><path d="m15.35 32.63a1 1 0 0 0 1.39.12 1 1 0 0 0 .5-1.27 1 1 0 0 0 -1.39-.11 1 1 0 0 0 -.5 1.26z"/><path d="m18 31.32a.92.92 0 0 0 .37-.55 1 1 0 0 0 -.67.09c-.25.14.05.63.3.46z"/><path d="m15.8 34.25c.09.4.59.62 1.14.51s.9-.52.82-.92a.91.91 0 0 0 -1.14-.5c-.54.11-.91.52-.82.91z"/><path d="m18.49 33.94a.88.88 0 0 0 .48-.35.9.9 0 0 0 -.59-.13.25.25 0 0 0 .11.48z"/><path d="m17.46 36c0-.34-.43-.58-.89-.54s-.81.34-.78.68.43.58.89.54.81-.36.78-.68z"/><path d="m18.5 35.9a.77.77 0 0 0 -.48-.17.21.21 0 0 0 0 .41.75.75 0 0 0 .48-.24z"/><path d="m54.13 6.28a1.64 1.64 0 0 0 -1.47-.28 1.49 1.49 0 0 0 -.67.43 1.87 1.87 0 0 0 -2.21-.25 2.08 2.08 0 0 0 -.32.27 1.76 1.76 0 0 0 -.41 1.38 1.84 1.84 0 0 0 -1.36.56 2 2 0 0 0 -.24.33 1.77 1.77 0 0 0 .55 2.14 1.48 1.48 0 0 0 -.36.69 1.56 1.56 0 0 0 .36 1.45 2.2 2.2 0 0 0 1.19.64 2.27 2.27 0 0 0 1.4-.15 4.1 4.1 0 0 0 .58.67c1.24 1.07 2.07.35 2.29.1a2.84 2.84 0 0 0 .5-.84 3.28 3.28 0 0 1 .48-.82 3.15 3.15 0 0 1 .77-.55 3.25 3.25 0 0 0 .81-.59 1.25 1.25 0 0 0 .31-1.24 2 2 0 0 0 -.68-1 3.68 3.68 0 0 0 -.75-.48 2 2 0 0 0 0-1.38 2.19 2.19 0 0 0 -.78-1.07zm-3.88 2.12a1 1 0 0 1 .06-1.4 1 1 0 0 1 1.34.49 1 1 0 0 1 -.06 1.39 1 1 0 0 1 -1.34-.49zm-1.93.78a1.07 1.07 0 0 1 1.42-.18c.57.28.86.83.65 1.23a1 1 0 0 1 -1.4.23c-.58-.28-.87-.84-.67-1.24zm1.09 3.49c-.56-.12-.94-.52-.86-.91s.6-.62 1.16-.51.93.52.85.91-.6.62-1.15.51zm4.32-.75c-.88 1-.74 2.48-1.89 1.48a2.87 2.87 0 0 1 -.49-3.55 3.06 3.06 0 0 1 3.65.07c1.15 1-.41 1-1.29 2zm.27-4.27a.89.89 0 0 1 -.38 1.18.93.93 0 0 1 -1-.73.88.88 0 0 1 .38-1.17c.38-.13.84.2 1 .72zm0 0"/><path d="m41.13 29.63a1.64 1.64 0 0 0 -1.47-.25 1.49 1.49 0 0 0 -.67.43 1.87 1.87 0 0 0 -2.21-.25 1.63 1.63 0 0 0 -.31.27 1.73 1.73 0 0 0 -.42 1.38 1.88 1.88 0 0 0 -1.36.56 1.56 1.56 0 0 0 -.23.34 1.76 1.76 0 0 0 .54 2.11 1.48 1.48 0 0 0 -.36.69 1.58 1.58 0 0 0 .42 1.4 2.26 2.26 0 0 0 1.19.63 2.23 2.23 0 0 0 1.41-.15 3.61 3.61 0 0 0 .57.67c1.24 1.07 2.07.35 2.29.1a2.84 2.84 0 0 0 .5-.84 3.47 3.47 0 0 1 .48-.82 3 3 0 0 1 .78-.55 3.35 3.35 0 0 0 .8-.58 1.27 1.27 0 0 0 .31-1.25 2 2 0 0 0 -.68-1 3.68 3.68 0 0 0 -.75-.48 2 2 0 0 0 0-1.38 2.19 2.19 0 0 0 -.78-1.07zm-3.88 2.12a1 1 0 0 1 .06-1.39 1 1 0 0 1 1.34.49 1 1 0 0 1 -.06 1.39 1 1 0 0 1 -1.34-.49zm-1.92.78a1.06 1.06 0 0 1 1.41-.22c.57.28.86.83.66 1.24a1.06 1.06 0 0 1 -1.41.22c-.58-.28-.87-.83-.66-1.24zm1.08 3.47c-.56-.11-.94-.52-.86-.91a.94.94 0 0 1 1.16-.51c.55.11.94.52.85.91s-.6.62-1.15.51zm4.32-.75c-.88 1-.74 2.48-1.89 1.48a2.87 2.87 0 0 1 -.49-3.55 3.06 3.06 0 0 1 3.67.07c1.15 1-.41 1-1.29 2zm.27-4.25a.89.89 0 0 1 -.38 1.18.93.93 0 0 1 -1-.72.9.9 0 0 1 .38-1.18c.38-.13.84.2 1 .72zm0 0"/></g><path d="m-2.28 1.47h105.56v42.02h-105.56z" fill="none"/><path d="m-7.65 43.49h113.7v42.02h-113.7z" fill="none"/><path d="m24.25 51.84a2.35 2.35 0 0 0 -1.06.32l-.28.14a1.75 1.75 0 0 1 -.73.18h-.18a4.89 4.89 0 0 0 -.66 0c-.92 0-1.69.35-1.69 1.54a1 1 0 0 0 .22.64c.58.74 2.18.89 3.1 1.43a3.9 3.9 0 0 1 .36.25c.43.33.87.76 1.3 1.11a3.21 3.21 0 0 0 .9.57 1.25 1.25 0 0 0 .42.08.86.86 0 0 0 .43-.11c1.24-.68 1-1.65.4-2.54l-.13-.18a.87.87 0 0 1 -.11-.18c-.34-.65 0-1.38-.38-2.08a2 2 0 0 0 -.81-.76 2.45 2.45 0 0 0 -.74-.31 1.45 1.45 0 0 0 -.35 0" fill="#fff"/><path d="m22.78 48.62a.86.86 0 0 0 -.48.16 2.94 2.94 0 0 0 -.8.92c-.44.74-.42 1.55 0 1.82a.81.81 0 0 0 .34.08 1 1 0 0 0 .33-.06 2 2 0 0 0 1-.88 4.22 4.22 0 0 0 .35-.66 1.09 1.09 0 0 0 0-1 .88.88 0 0 0 -.34-.32 1 1 0 0 0 -.48-.15" fill="#fff"/><path d="m28.92 52.24a1.16 1.16 0 0 0 -.82.45 4.3 4.3 0 0 0 -.45.62 1.75 1.75 0 0 0 -.26 1.53.69.69 0 0 0 .28.33.73.73 0 0 0 .35.09 1.08 1.08 0 0 0 .38-.08 2.09 2.09 0 0 0 1-.86l.1-.15c.4-.7.63-1.39-.06-1.8a.93.93 0 0 0 -.48-.14" fill="#fff"/><path d="m25.74 48c-.52 0-.95.5-1.32 1.08l-.05.09c-.5.8-.49 1.7 0 2a.79.79 0 0 0 .38.09h.12a2.05 2.05 0 0 0 1.33-1c.5-.8.84-1.63 0-2.1a1 1 0 0 0 -.52-.15" fill="#fff"/><path d="m28 49.36a1 1 0 0 0 -.65.26 4.09 4.09 0 0 0 -.73.91c-.46.76-.48 1.59-.06 1.94l.09.06a.7.7 0 0 0 .38.1 1.91 1.91 0 0 0 1.44-1c.45-.72.77-1.46.26-1.94a1 1 0 0 0 -.22-.16l-.09-.05a.88.88 0 0 0 -.42-.11" fill="#fff"/><path d="m-1.78 52c-.72.25-1.67-.05-2.12.74s.31 1.42.5 2.17-.06 2.09.8 2.09c1.64 0 .84-1.13 1.7-2.61s2.24-1.47 1.41-2.81c-.51-.8-1.64.16-2.29.42z" fill="#fff"/><path d="m81.64 57.49c-1.25-.69.07-1.59-.9-3.09s-2.66-1.77-1.74-3.56c.68-1.29 3.34-.81 5 1.37 2.09 2.79-1.06 6-2.36 5.28z" fill="#fff"/><path d="m82.21 49.43a.76.76 0 0 0 .94-.44.73.73 0 0 0 -.15-.99.76.76 0 0 0 -.95.44.72.72 0 0 0 .16.99z" fill="#fff"/><path d="m83.44 47.57a.69.69 0 0 0 0-.49.73.73 0 0 0 -.4.3c-.04.22.28.41.4.19z" fill="#fff"/><path d="m83.86 50.25a.91.91 0 0 0 1.23-.19.87.87 0 0 0 .16-1.21.93.93 0 0 0 -1.24.2.85.85 0 0 0 -.15 1.2z" fill="#fff"/><path d="m54.13 48.29a1.7 1.7 0 0 0 -1.47-.29 1.68 1.68 0 0 0 -.67.43 1.87 1.87 0 0 0 -2.21-.25 1.64 1.64 0 0 0 -.32.27 1.76 1.76 0 0 0 -.41 1.38 1.8 1.8 0 0 0 -1.36.56 2 2 0 0 0 -.24.33 1.77 1.77 0 0 0 .55 2.16 1.5 1.5 0 0 0 0 2.12 2.2 2.2 0 0 0 1.19.64 2.27 2.27 0 0 0 1.4-.15 4.1 4.1 0 0 0 .58.67c1.24 1.07 2.07.35 2.29.1a2.84 2.84 0 0 0 .5-.84 3.28 3.28 0 0 1 .48-.82 3.15 3.15 0 0 1 .77-.55 3.25 3.25 0 0 0 .81-.59 1.26 1.26 0 0 0 .31-1.24 2 2 0 0 0 -.68-1 3 3 0 0 0 -.75-.48 2 2 0 0 0 0-1.38 2.26 2.26 0 0 0 -.78-1.08zm-3.88 2.12a1 1 0 0 1 .06-1.41 1.07 1.07 0 0 1 1.34.5 1 1 0 0 1 -.06 1.39 1.05 1.05 0 0 1 -1.34-.5zm-1.93.79a1.07 1.07 0 0 1 1.42-.2c.57.28.86.83.65 1.23s-.83.5-1.4.23-.87-.84-.67-1.24zm1.09 3.48c-.56-.11-.94-.52-.86-.91s.6-.61 1.16-.5.93.52.85.91-.6.62-1.15.5zm4.32-.74c-.88 1-.74 2.48-1.89 1.48a2.87 2.87 0 0 1 -.49-3.55 3.06 3.06 0 0 1 3.67.07c1.15 1-.41 1-1.29 2zm.27-4.27a.87.87 0 0 1 -.38 1.17c-.39.13-.85-.19-1-.72a.88.88 0 0 1 .38-1.12c.38-.13.84.2 1 .72zm0 0" fill="#fff"/><path d="m-2.28 43.49h105.56v42.02h-105.56z" fill="none"/></g></g></svg>